# xmcd
#
# Track frame offsets:
#	150
#	11743
#	23856
#	39909
#	51311
#	65974
#	81857
#	97522
#	114562
#	128967
#
# Disc length: 1944 seconds
#
# Revision: 0
# Processed by: cddbd v1.5.1PL0 Copyright (c) Steve Scherf et al.
# Submitted via: dBpowerAMP V4.0
#
DISCID=7e07960a
DTITLE=Mark Chesnutt - What A Way To Live
DYEAR=1994
DGENRE=Country
TTITLE0=What A Way To Live
TTITLE1=Live A Little
TTITLE2=She Dreams
TTITLE3=Goin' Through The Big D
TTITLE4=Down In Tennessee
TTITLE5=Gonna Get A Life
TTITLE6=It's Almost Like You're Here
TTITLE7=Rainy Day Woman (With Waylon Jennings)
TTITLE8=This Side Of The Door
TTITLE9=Half Of Everything (And All Of My Heart)
EXTD=
EXTT0=
EXTT1=
EXTT2=
EXTT3=
EXTT4=
EXTT5=
EXTT6=
EXTT7=
EXTT8=
EXTT9=
PLAYORDER=
